<?xml version="1.0" standalone="no"?>
<!DOCTYPE svg PUBLIC "-//W3C//DTD SVG 20010904//EN"
 "http://www.w3.org/TR/2001/REC-SVG-20010904/DTD/svg10.dtd">
<svg version="1.0" xmlns="http://www.w3.org/2000/svg"
 width="530.000000pt" height="530.000000pt" viewBox="0 0 530.000000 530.000000"
 preserveAspectRatio="xMidYMid meet">
<metadata>
Created by potrace 1.14, written by Peter Selinger 2001-2017
</metadata>
<g transform="translate(0.000000,530.000000) scale(0.100000,-0.100000)"
fill="#000000" stroke="none">
<path d="M1175 3973 c-44 -23 -74 -53 -95 -93 -9 -19 -106 -302 -214 -627
l-197 -593 4 -462 c3 -445 4 -466 25 -529 60 -180 227 -336 409 -383 50 -13
128 -16 440 -16 352 0 384 1 453 21 103 28 173 70 255 153 125 127 165 238
165 463 l0 143 200 0 200 0 0 -143 c0 -229 41 -340 174 -472 77 -76 161 -124
261 -150 89 -23 790 -22 879 1 149 39 307 166 375 305 57 116 61 158 61 639
l0 434 -196 591 c-108 324 -203 604 -211 620 -22 43 -52 74 -95 96 -34 17 -62
19 -353 19 l-315 0 0 -190 0 -190 223 0 222 0 132 -395 131 -394 -506 -3 -507
-3 -55 -28 c-127 -66 -219 -201 -220 -319 l0 -38 -199 0 -198 0 -6 60 c-12
138 -127 271 -272 317 -30 10 -163 13 -525 13 l-485 0 130 395 130 394 223 1
222 0 0 190 0 190 -317 0 c-270 -1 -323 -3 -348 -17z m863 -1850 c-4 -354 -5
-362 -71 -420 -20 -18 -54 -36 -74 -40 -67 -14 -663 -10 -705 5 -47 17 -106
77 -118 122 -6 19 -10 173 -10 343 l0 307 491 0 490 0 -3 -317z m2142 10 c0
-183 -4 -323 -11 -345 -12 -46 -68 -103 -118 -120 -41 -15 -638 -19 -704 -5
-20 4 -54 22 -74 40 -66 58 -67 66 -71 420 l-3 317 490 0 491 0 0 -307z"/>
</g>
</svg>
